<svg xmlns="http://www.w3.org/2000/svg" width="128" height="128"><g fill="none" fill-rule="evenodd"><path stroke="#009" stroke-width="2.374" d="M38 12v20H18m15.5 19.5h38M42 66.5h30m-22 15h22"/><path fill="#FFC60B" fill-rule="nonzero" d="M92 38.834l1.025 1.755 7.59 13-2.05 1.197-5.379-9.215v13.513c0 2.72 1.038 5.332 2.893 7.309l.236.244 13.048 13.048a13.054 13.054 0 013.819 8.86l.005.37V91h-2.374v-2.084c0-2.72-1.037-5.332-2.892-7.309l-.236-.244-13.048-13.048a13.054 13.054 0 01-3.819-8.86l-.005-.37V45.572l-5.379 9.213-2.05-1.197 7.591-13L92 38.834z"/><path fill="#FFC60B" fill-rule="nonzero" d="M92 38.834l1.025 1.755 7.59 13-2.05 1.197-5.379-9.215v13.513c0 2.72 1.038 5.332 2.893 7.309l.236.244 13.048 13.048a13.054 13.054 0 013.819 8.86l.005.37V91h-2.374v-2.084c0-2.72-1.037-5.332-2.892-7.309l-.236-.244-13.048-13.048a13.054 13.054 0 01-3.819-8.86l-.005-.37V45.572l-5.379 9.213-2.05-1.197 7.591-13L92 38.834z"/><path stroke="#009" stroke-width="2.374" d="M102 33V12H38L18 32v84h84V95"/></g></svg>