<svg xmlns="http://www.w3.org/2000/svg" width="128" height="128"><g stroke-width="2.374" fill="none" fill-rule="evenodd"><g stroke="#FFC60B" transform="translate(43 47)"><circle cx="21" cy="11.5" r="11.5"/><path d="M13.5 20C5.88 23.02.5 30.389.5 39m28-19c7.62 3.02 13 10.389 13 19"/></g><g stroke="#009" transform="translate(90 19)"><circle cx="14" cy="7.667" r="7.667"/><path d="M9 13.333C3.92 15.346.333 20.26.333 26M19 13.333c5.08 2.013 8.667 6.927 8.667 12.667"/></g><g stroke="#009" transform="translate(10 19)"><circle cx="14" cy="7.667" r="7.667"/><path d="M9 13.333C3.92 15.346.333 20.26.333 26M19 13.333c5.08 2.013 8.667 6.927 8.667 12.667"/></g><path stroke="#009" d="M83 11h42v42H83zM3 11h42v42H3z"/><circle cx="64" cy="104" r="16" stroke="#FFC60B"/><path stroke="#FFC60B" d="M58 104l5 5 9-11"/></g></svg>