<svg xmlns="http://www.w3.org/2000/svg" width="166" height="24"><defs><filter id="a"><feColorMatrix in="SourceGraphic" values="0 0 0 0 1.000000 0 0 0 0 1.000000 0 0 0 0 1.000000 0 0 0 1.000000 0"/></filter></defs><g filter="url(#a)" transform="translate(-79 -60)" fill="none" fill-rule="evenodd"><path fill="#009" d="M243.139 65.531l-.34 1.482-.344-1.482h-.572v1.884h.366v-1.427l-.002-.153.354 1.58h.384l.356-1.58-.001.153-.002.153v1.274h.367v-1.884h-.566zm-3.006.334h.567v1.55h.396v-1.55h.563v-.334h-1.526v.334zm-4.96 5.956c0-2.3-1.65-3.949-3.544-3.949-1.866 0-3.543 1.65-3.543 3.95 0 2.298 1.677 3.949 3.543 3.949 1.893 0 3.544-1.65 3.544-3.95zm3.137 0c0 4.058-2.758 6.627-5.788 6.627-1.677 0-3.327-.865-4.246-2.813-.055-.109-.135-.082-.135.027v7.6h-3.247V65.545h3.247v2.435c0 .109.08.135.135.027.92-1.948 2.57-2.813 4.246-2.813 3.03 0 5.788 2.57 5.788 6.627zm-18.906 1.73c0 1.191-.838 2.03-1.948 2.03-1.217 0-2.028-.812-2.028-2.056v-7.98h-3.246v8.223c0 2.813 2.029 4.734 5.193 4.734 3.084 0 5.275-1.92 5.275-4.734v-8.223h-3.246v8.007zm-11.901-1.73c0-2.11-1.595-3.733-3.543-3.733-1.948 0-3.544 1.623-3.544 3.733 0 2.11 1.596 3.733 3.544 3.733s3.543-1.623 3.543-3.733zm3.138 0c0 3.679-3.003 6.681-6.654 6.681-3.705 0-6.708-3.002-6.708-6.681 0-3.679 3.003-6.681 6.708-6.681 3.651 0 6.654 3.002 6.654 6.68zm-16.933-3.543c-.027.08-.081.054-.081 0v-2.733h-3.245v12.552h3.245V71.09c0-1.461.677-2.489 2.001-2.489h1.461v-3.408h-.297c-1.677 0-2.651.84-3.084 3.085zm-8.845 3.489c0-2.272-1.65-3.896-3.488-3.896-1.867 0-3.49 1.624-3.49 3.896s1.623 3.895 3.49 3.895c1.839 0 3.488-1.623 3.488-3.895zm-.053-6.222h3.246v11.82c0 3.49-2.407 6.195-6.573 6.195-2.327 0-4.356-.811-5.843-2.191l1.948-2.11c1.298 1.028 2.326 1.57 3.84 1.57 2.38 0 3.382-1.678 3.382-3.76v-1.516c0-.108-.082-.135-.135-.027-.92 1.948-2.544 2.813-4.193 2.813-3.003 0-5.734-2.541-5.734-6.572 0-4.03 2.731-6.573 5.734-6.573 1.65 0 3.273.865 4.193 2.813.053.108.135.081.135-.027v-2.435zm-19.34 6.276c0-2.3-1.676-3.95-3.543-3.95-1.893 0-3.543 1.65-3.543 3.95 0 2.3 1.65 3.949 3.543 3.949 1.867 0 3.543-1.65 3.543-3.95zm-.054-6.276h3.247v12.552h-3.247v-2.435c0-.109-.08-.135-.135-.027-.92 1.948-2.57 2.813-4.246 2.813-3.03 0-5.789-2.57-5.789-6.627 0-4.058 2.76-6.628 5.789-6.628 1.677 0 3.327.866 4.246 2.814.055.108.135.081.135-.027v-2.435zm-15.039 12.552h3.247V65.546h-3.247v12.55zM152.001 60c-1.028 0-1.894.865-1.894 1.893s.866 1.894 1.894 1.894 1.893-.866 1.893-1.894S153.03 60 152.001 60zm-7.14 11.82c0-2.298-1.678-3.949-3.544-3.949-1.894 0-3.543 1.65-3.543 3.95 0 2.3 1.65 3.949 3.543 3.949 1.866 0 3.544-1.65 3.544-3.95zm-.055-11.71h3.246v17.988h-3.246v-2.435c0-.109-.081-.135-.135-.027-.92 1.948-2.57 2.813-4.247 2.813-3.03 0-5.788-2.57-5.788-6.627 0-4.058 2.759-6.628 5.788-6.628 1.677 0 3.328.866 4.247 2.814.054.108.135.081.135-.027v-7.872zm-17.905 5.03c-3.678 0-6.654 3.003-6.654 6.682 0 3.679 2.976 6.681 6.654 6.681 2.326 0 4.355-1.163 5.518-2.975h-4.924c-2.595 0-4.11-1.57-4.11-3.76 0-1.84 1.407-3.625 3.489-3.625 2.3 0 3.489 1.867 3.489 3.165 0 1.054-.595 1.731-1.92 1.786l-2.624.08v.73h7.438c.19-.648.325-1.352.325-2.082 0-3.679-3.002-6.681-6.68-6.681zm-10.846 6.682c0-2.3-1.65-3.949-3.543-3.949-1.867 0-3.544 1.65-3.544 3.95 0 2.298 1.677 3.949 3.544 3.949 1.893 0 3.543-1.65 3.543-3.95zm3.138 0c0 4.058-2.76 6.627-5.789 6.627-1.677 0-3.327-.865-4.247-2.813-.054-.109-.135-.082-.135.027v7.6h-3.246V65.545h3.246v2.435c0 .109.081.135.135.027.92-1.948 2.57-2.813 4.247-2.813 3.03 0 5.789 2.57 5.789 6.627zm-14.254-6.277h-3.517l-2.543 3.735-2.57-3.734h-3.732l4.463 6.195-4.599 6.357h3.517l2.813-4.058 2.786 4.058h3.733l-4.68-6.52 4.329-6.032zm-17.69 9.982h4.923c-1.163 1.812-3.192 2.975-5.518 2.975-3.679 0-6.654-3.002-6.654-6.68 0-3.681 2.975-6.682 6.654-6.682s6.681 3.002 6.681 6.681c0 .73-.135 1.434-.324 2.083H85.57v-.73l2.624-.081c1.326-.055 1.921-.732 1.921-1.786 0-1.298-1.19-3.165-3.49-3.165-2.082 0-3.488 1.786-3.488 3.625 0 2.19 1.514 3.76 4.11 3.76z"/></g></svg>